<?xml version="1.0" encoding="utf-8"?>
<!-- Generator: Adobe Illustrator 22.0.1, SVG Export Plug-In . SVG Version: 6.00 Build 0)  -->
<svg version="1.1" id="Optimizely_x5F_Symbol_x5F_Full_x5F_Color_x5F_Dark"
	 xmlns="http://www.w3.org/2000/svg" x="0px" y="0px" viewBox="0 0 1500 1500"
	 style="enable-background:new 0 0 1500 1500;" xml:space="preserve">
<style type="text/css">
	.st0{fill:#0037FF;}
	.st1{fill:#080738;}
</style>
<g>
	<g>
		<g>
			<path class="st0" d="M554.1,162.3c-71.4,71.4-119.2,157.4-143.5,248.3c45.1-12,91.4-18.3,137.8-18.8L391.8,548.4
				c-0.4,34.6,2.5,69.2,8.6,103.3l251.3-251.3c32.1,5.7,63.8,14.3,94.6,25.7c9-14,19.7-27.3,31.9-39.6c92.6-92.6,242.6-92.6,335.2,0
				c92.5,92.5,92.6,242.6,0,335.2c-12.3,12.3-25.6,22.9-39.6,31.9c11.4,30.9,20,62.5,25.7,94.6l-251.3,251.3
				c34.1,6.1,68.8,9,103.3,8.6l156.6-156.6c-0.5,46.4-6.7,92.7-18.8,137.8c91-24.3,177-72.1,248.3-143.5
				c216.4-216.4,216.4-567.2,0-783.6C1121.3-54.1,770.5-54.1,554.1,162.3z"/>
			<path class="st0" d="M731.9,656.1c-13.5-28.3-21-58.6-22.7-89.3L566.8,709.3L458.4,817.8c12.7,23.5,27.3,46.4,43.7,68.2l154-154
				L731.9,656.1z"/>
			<path class="st0" d="M933.1,790.7c-30.6-1.6-61-9.2-89.3-22.7L768,843.9l-154,154c21.9,16.4,44.7,31,68.2,43.7l108.5-108.5
				L933.1,790.7z"/>
		</g>
		<g>
			<path class="st1" d="M709.3,566.8c-2.6-48.8,9.8-98.2,37.1-140.7c-30.9-11.4-62.5-20-94.6-25.7L400.4,651.8
				c5.7,32.1,14.3,63.8,25.7,94.6c9,24.4,19.7,48.2,32.3,71.3L709.3,566.8z"/>
			<path class="st1" d="M933.1,790.7l-250.9,250.9c23.1,12.5,47,23.3,71.4,32.3c30.8,11.4,62.5,20,94.6,25.7l251.3-251.3
				c-5.7-32.1-14.3-63.8-25.7-94.6C1031.3,781,981.9,793.4,933.1,790.7z"/>
			<path class="st1" d="M1089.4,1089.4c12.1-45.1,18.3-91.4,18.8-137.8l-156.6,156.6C997.9,1107.7,1044.3,1101.5,1089.4,1089.4z"/>
			<path class="st1" d="M410.6,410.6c-12,45.1-18.3,91.4-18.8,137.8l156.6-156.6C502,392.3,455.7,398.6,410.6,410.6z"/>
			<path class="st1" d="M843.9,768.1c-23.7-11.3-45.9-26.8-65.6-46.4c-19.6-19.6-35.1-41.8-46.4-65.6L502.1,886
				c15.7,20.9,33,40.9,52,59.9c19,19,39,36.3,59.9,52L843.9,768.1z"/>
		</g>
		<g>
			<path class="st0" d="M410.6,410.6c-91,24.3-177,72.1-248.3,143.5C55.5,660.9,1.4,800.3,0,940.3l391.8-391.8
				C392.3,502.1,398.5,455.7,410.6,410.6z"/>
			<path class="st0" d="M559.7,1500c139.9-1.4,279.4-55.5,386.2-162.3c71.4-71.4,119.2-157.4,143.5-248.3
				c-45.1,12.1-91.4,18.3-137.8,18.8L559.7,1500z"/>
			<path class="st0" d="M386.5,778.4c12.3-12.3,25.6-22.9,39.6-31.9c-11.4-30.9-20-62.5-25.7-94.6L8.6,1043.6
				c10.2,57.4,29.5,113.5,57.9,166l250.9-250.9C314,893.8,337,827.9,386.5,778.4z"/>
			<path class="st0" d="M753.6,1073.9c-9,14-19.7,27.3-31.9,39.6c-49.5,49.5-115.5,72.5-180.3,69.1l-250.9,250.9
				c52.5,28.4,108.6,47.7,166,57.9l391.8-391.8C816.1,1093.9,784.4,1085.3,753.6,1073.9z"/>
			<path class="st0" d="M386.5,1113.5c-19.6-19.6-35.1-41.8-46.4-65.6l-229.9,229.9c15.7,20.9,33,40.9,52,59.9
				c19,19,39,36.3,59.9,52l229.9-229.9C428.3,1148.6,406.1,1133.1,386.5,1113.5z"/>
		</g>
	</g>
</g>
</svg>
